<svg width="16" height="16" viewBox="0 0 16 16" fill="none" xmlns="http://www.w3.org/2000/svg">
<mask id="mask0_1_7373" style="mask-type:alpha" maskUnits="userSpaceOnUse" x="0" y="0" width="16" height="16">
<path fill-rule="evenodd" clip-rule="evenodd" d="M4.66684 7.33285C4.66684 6.96485 4.96551 6.66619 5.33351 6.66619C5.70151 6.66619 6.00017 6.96485 6.00017 7.33285C6.00017 7.70085 5.70151 7.99952 5.33351 7.99952C4.96551 7.99952 4.66684 7.70085 4.66684 7.33285ZM8.00017 6.66619C7.63217 6.66619 7.33351 6.96485 7.33351 7.33285C7.33351 7.70085 7.63217 7.99952 8.00017 7.99952C8.36817 7.99952 8.66684 7.70085 8.66684 7.33285C8.66684 6.96485 8.36817 6.66619 8.00017 6.66619ZM10.6668 6.66619C10.2988 6.66619 10.0002 6.96485 10.0002 7.33285C10.0002 7.70085 10.2988 7.99952 10.6668 7.99952C11.0348 7.99952 11.3335 7.70085 11.3335 7.33285C11.3335 6.96485 11.0348 6.66619 10.6668 6.66619ZM13.2658 8.19612C12.9278 10.3655 11.1791 12.1648 9.01311 12.5708C7.96711 12.7681 6.90177 12.6555 5.93511 12.2461C5.66111 12.1301 5.37777 12.0715 5.09977 12.0715C4.97311 12.0715 4.84777 12.0835 4.72444 12.1081L2.84977 12.4828L3.22511 10.6048C3.30377 10.2148 3.25577 9.79745 3.08711 9.39812C2.67777 8.43145 2.56577 7.36679 2.76244 6.32012C3.16844 4.15412 4.96711 2.40545 7.13711 2.06745V2.06745C8.86377 1.79879 10.5524 2.34279 11.7711 3.56145C12.9904 4.78079 13.5351 6.47012 13.2658 8.19612M12.7144 2.61879C11.1911 1.09612 9.08444 0.416786 6.93177 0.749453C4.21377 1.17345 1.96044 3.36279 1.45177 6.07412C1.20644 7.37945 1.34777 8.70879 1.85911 9.91745C1.92377 10.0715 1.94377 10.2148 1.91844 10.3435L1.34644 13.2021C1.30244 13.4208 1.37111 13.6468 1.52911 13.8041C1.65511 13.9308 1.82511 13.9995 2.00044 13.9995C2.04377 13.9995 2.08711 13.9955 2.13111 13.9868L4.98644 13.4155C5.15044 13.3841 5.30911 13.4301 5.41511 13.4741C6.62511 13.9855 7.95444 14.1261 9.25844 13.8815C11.9704 13.3728 14.1598 11.1195 14.5838 8.40145C14.9184 6.25012 14.2378 4.14212 12.7144 2.61879" fill="#071435"/>
</mask>
<g mask="url(#mask0_1_7373)">
<rect width="16" height="16" fill="#1551E5"/>
</g>
</svg>
