<svg width="16" height="16" viewBox="0 0 16 16" fill="none" xmlns="http://www.w3.org/2000/svg">
<mask id="mask0_1_7387" style="mask-type:alpha" maskUnits="userSpaceOnUse" x="0" y="0" width="16" height="16">
<path fill-rule="evenodd" clip-rule="evenodd" d="M13.1598 2.84047C12.9285 2.60847 12.5532 2.60847 12.3218 2.84047L2.8405 12.3218C2.7245 12.4378 2.6665 12.5891 2.6665 12.7411C2.6665 12.8925 2.7245 13.0445 2.8405 13.1598C3.07184 13.3911 3.4465 13.3911 3.6785 13.1598L13.1598 3.67847C13.3912 3.44647 13.3912 3.07181 13.1598 2.84047M10.6667 12.6667C10.1154 12.6667 9.6667 12.218 9.6667 11.6667C9.6667 11.1153 10.1154 10.6667 10.6667 10.6667C11.218 10.6667 11.6667 11.1153 11.6667 11.6667C11.6667 12.218 11.218 12.6667 10.6667 12.6667M10.6667 9.33334C9.38004 9.33334 8.33337 10.38 8.33337 11.6667C8.33337 12.9533 9.38004 14 10.6667 14C11.9534 14 13 12.9533 13 11.6667C13 10.38 11.9534 9.33334 10.6667 9.33334M5.33337 4.00001C5.8847 4.00001 6.33337 4.44867 6.33337 5.00001C6.33337 5.55134 5.8847 6.00001 5.33337 6.00001C4.78204 6.00001 4.33337 5.55134 4.33337 5.00001C4.33337 4.44867 4.78204 4.00001 5.33337 4.00001M5.33337 7.33334C6.62004 7.33334 7.6667 6.28667 7.6667 5.00001C7.6667 3.71334 6.62004 2.66667 5.33337 2.66667C4.0467 2.66667 3.00004 3.71334 3.00004 5.00001C3.00004 6.28667 4.0467 7.33334 5.33337 7.33334" fill="#071435"/>
</mask>
<g mask="url(#mask0_1_7387)">
<rect width="16" height="16" fill="#1551E5"/>
</g>
</svg>
