<svg width="25" height="24" viewBox="0 0 25 24" fill="none" xmlns="http://www.w3.org/2000/svg">
<mask id="mask0_1_6146" style="mask-type:alpha" maskUnits="userSpaceOnUse" x="0" y="0" width="25" height="24">
<path fill-rule="evenodd" clip-rule="evenodd" d="M16.8818 14H9.26376L7.62676 8H19.8818L16.8818 14ZM21.5828 6.948C21.2158 6.354 20.5798 6 19.8818 6H7.08176L6.46476 3.737C6.34576 3.302 5.95076 3 5.49976 3H3.49976C2.94676 3 2.49976 3.448 2.49976 4C2.49976 4.552 2.94676 5 3.49976 5H4.73576L7.53476 15.263C7.65376 15.698 8.04876 16 8.49976 16H17.4998C17.8788 16 18.2248 15.786 18.3948 15.447L21.6708 8.894C21.9838 8.269 21.9498 7.542 21.5828 6.948ZM7.99996 18C7.17196 18 6.49996 18.671 6.49996 19.5C6.49996 20.329 7.17196 21 7.99996 21C8.82796 21 9.49996 20.329 9.49996 19.5C9.49996 18.671 8.82796 18 7.99996 18ZM16.5 19.5C16.5 18.671 17.172 18 18 18C18.828 18 19.5 18.671 19.5 19.5C19.5 20.329 18.828 21 18 21C17.172 21 16.5 20.329 16.5 19.5Z" fill="#071435"/>
</mask>
<g mask="url(#mask0_1_6146)">
<rect width="24" height="24" transform="translate(0.5)" fill="white"/>
</g>
</svg>
